<mxfile host="app.diagrams.net" modified="2023-05-12T13:40:01.373Z" agent="Mozilla/5.0 (Windows NT 10.0; Win64; x64) AppleWebKit/537.36 (KHTML, like Gecko) Chrome/112.0.0.0 Safari/537.36" version="21.2.9" etag="YEuFN_fPYusRuQBK_7QL" type="github">
  <diagram name="Page-1" id="5TEYF_DLxZkXCq57DAPL">
    <mxGraphModel>
      <root>
        <mxCell id="0" />
        <mxCell id="1" parent="0" />
      </root>
    </mxGraphModel>
  </diagram>
</mxfile>
